<svg xmlns="http://www.w3.org/2000/svg" width="137" height="58" viewBox="0 0 137 58">
  <g id="Logo" transform="translate(-200 -46)">
    <text id="Your_LOGO" data-name="Your
LOGO" transform="translate(263 69)" font-size="24" font-family="Montserrat-Regular, Montserrat"><tspan x="0" y="0">YOUR</tspan><tspan font-family="Montserrat-Bold, Montserrat" font-weight="700"><tspan x="0" y="29">LOGO</tspan></tspan></text>
    <path id="Icon_awesome-graduation-cap" data-name="Icon awesome-graduation-cap" d="M61.261,13.281,33.8,4.845a7.864,7.864,0,0,0-4.606,0L1.738,13.281a2.318,2.318,0,0,0,0,4.488l4.787,1.471a7.757,7.757,0,0,0-1.76,4.617,3.037,3.037,0,0,0-.251,5.219L2,40.383A1.575,1.575,0,0,0,3.538,42.3H9.061A1.575,1.575,0,0,0,10.6,40.383L8.085,29.075a3.03,3.03,0,0,0-.177-5.17A4.644,4.644,0,0,1,9.945,20.29L29.2,26.205a7.872,7.872,0,0,0,4.606,0l27.459-8.436a2.318,2.318,0,0,0,0-4.489ZM34.727,29.217a11.019,11.019,0,0,1-6.456,0L14,24.831,12.6,36c0,3.48,8.462,6.3,18.9,6.3S50.4,39.48,50.4,36L49,24.83Z" transform="translate(200 51.5)" fill="#e79a00"/>
  </g>
</svg>
